<svg width="1440" height="5117" viewBox="0 0 1440 5117" fill="none" xmlns="http://www.w3.org/2000/svg">
<path d="M890.5 0.000196591C991 -1.50032 1192.86 18.7675 1069.66 174.503C915.648 369.171 1461.28 521.367 1373.27 369.172C1285.27 216.976 616.432 390.408 1157.66 648.787C1590.64 855.489 739.638 909.525 260.013 910.705C92.1495 918.375 -165.491 995.314 146.856 1241.71C537.29 1549.7 1243.71 1680.69 1200.68 1868.32C1157.66 2055.94 -386.357 2872 146.856 2872C1320 2872 251.144 3343.89 712 3504C852.545 3552.83 1446.95 3470.17 1416 3780C1358.34 4357.28 -60.8 4083.2 96 4400C292 4796 1416 4944 1446 5080" stroke="#772AB3" stroke-width="1.5" stroke-linecap="square"/>
<g filter="url(#filter0_f_1_7)">
<circle cx="882" cy="10" r="246" fill="#772AB3"/>
</g>
<g filter="url(#filter1_f_1_7)">
<circle cx="1308" cy="1916" r="246" fill="#772AB3"/>
</g>
<g filter="url(#filter2_f_1_7)">
<circle cx="179" cy="3865" r="246" fill="#772AB3"/>
</g>
<g filter="url(#filter3_f_1_7)">
<circle cx="227" cy="3900" r="246" fill="#772AB3"/>
</g>
<g filter="url(#filter4_f_1_7)">
<circle cx="1321" cy="4915" r="193" fill="#772AB3"/>
</g>
<path d="M514.549 530.889C514.851 529.972 516.148 529.972 516.449 530.889L521.158 545.204C521.257 545.506 521.493 545.743 521.795 545.842L536.111 550.55C537.028 550.852 537.028 552.149 536.111 552.45L521.795 557.158C521.493 557.258 521.257 557.494 521.158 557.796L516.449 572.112C516.148 573.029 514.851 573.029 514.549 572.112L509.841 557.796C509.742 557.494 509.505 557.258 509.204 557.158L494.888 552.45C493.971 552.149 493.971 550.852 494.888 550.55L509.204 545.842C509.505 545.743 509.742 545.506 509.841 545.204L514.549 530.889Z" fill="#772AB3"/>
<path d="M1058.87 156.393C1059 155.437 1060.28 155.204 1060.74 156.052L1067.94 169.292C1068.09 169.571 1068.37 169.762 1068.68 169.805L1083.61 171.872C1084.56 172.004 1084.8 173.28 1083.95 173.741L1070.71 180.938C1070.43 181.09 1070.24 181.365 1070.19 181.68L1068.13 196.608C1068 197.564 1066.72 197.796 1066.26 196.948L1059.06 183.708C1058.91 183.429 1058.63 183.239 1058.32 183.195L1043.39 181.129C1042.44 180.997 1042.2 179.721 1043.05 179.26L1056.29 172.062C1056.57 171.91 1056.76 171.635 1056.81 171.321L1058.87 156.393Z" fill="#772AB3"/>
<path d="M1157.27 810.592C1158.05 810.027 1159.1 810.788 1158.81 811.708L1155.06 823.419C1154.96 823.722 1155.01 824.052 1155.2 824.31L1162.4 834.28C1162.96 835.062 1162.2 836.112 1161.28 835.817L1149.57 832.067C1149.27 831.97 1148.94 832.023 1148.68 832.209L1138.71 839.409C1137.93 839.974 1136.88 839.212 1137.17 838.293L1140.92 826.581C1141.02 826.279 1140.97 825.948 1140.78 825.691L1133.58 815.721C1133.02 814.938 1133.78 813.889 1134.7 814.183L1146.41 817.933C1146.71 818.03 1147.04 817.977 1147.3 817.791L1157.27 810.592Z" fill="#772AB3"/>
<path d="M845.043 1422.38C844.704 1421.47 845.714 1420.66 846.524 1421.19L854.181 1426.16C854.447 1426.33 854.78 1426.37 855.077 1426.26L863.623 1423.04C864.526 1422.7 865.339 1423.71 864.813 1424.52L859.843 1432.18C859.67 1432.45 859.634 1432.78 859.745 1433.08L862.957 1441.62C863.297 1442.53 862.286 1443.34 861.477 1442.81L853.82 1437.84C853.553 1437.67 853.221 1437.63 852.923 1437.75L844.378 1440.96C843.475 1441.3 842.662 1440.29 843.188 1439.48L848.158 1431.82C848.331 1431.55 848.367 1431.22 848.255 1430.92L845.043 1422.38Z" fill="#772AB3"/>
<path d="M296.433 3009.98C297.205 3009.4 298.268 3010.15 297.991 3011.07L296.279 3016.78C296.188 3017.08 296.246 3017.41 296.437 3017.67L300.015 3022.43C300.595 3023.21 299.853 3024.27 298.928 3023.99L293.219 3022.28C292.915 3022.19 292.586 3022.25 292.332 3022.44L287.565 3026.02C286.793 3026.6 285.73 3025.85 286.007 3024.93L287.719 3019.22C287.81 3018.92 287.752 3018.59 287.561 3018.33L283.983 3013.57C283.403 3012.79 284.145 3011.73 285.07 3012.01L290.779 3013.72C291.083 3013.81 291.412 3013.75 291.666 3013.56L296.433 3009.98Z" fill="#772AB3"/>
<path d="M432.422 1203.17C433.036 1202.42 434.244 1202.89 434.192 1203.85L433.872 1209.81C433.855 1210.12 433.989 1210.43 434.234 1210.63L438.834 1214.42C439.579 1215.04 439.108 1216.25 438.144 1216.19L432.192 1215.87C431.875 1215.86 431.569 1215.99 431.367 1216.24L427.576 1220.83C426.962 1221.58 425.754 1221.11 425.806 1220.14L426.126 1214.19C426.143 1213.88 426.009 1213.57 425.764 1213.37L421.164 1209.58C420.42 1208.96 420.89 1207.75 421.854 1207.81L427.806 1208.13C428.123 1208.14 428.429 1208.01 428.631 1207.76L432.422 1203.17Z" fill="#772AB3"/>
<path d="M531.623 1902.42C531.549 1901.46 532.747 1900.96 533.377 1901.69L537.271 1906.21C537.478 1906.45 537.788 1906.58 538.104 1906.55L544.047 1906.1C545.009 1906.02 545.507 1907.22 544.777 1907.85L540.264 1911.74C540.023 1911.95 539.896 1912.26 539.92 1912.58L540.375 1918.52C540.449 1919.48 539.251 1919.98 538.621 1919.25L534.727 1914.74C534.52 1914.5 534.21 1914.37 533.894 1914.39L527.951 1914.85C526.988 1914.92 526.49 1913.72 527.221 1913.09L531.734 1909.2C531.974 1908.99 532.102 1908.68 532.078 1908.37L531.623 1902.42Z" fill="#772AB3"/>
<path d="M145.499 2142.49C146.01 2141.63 147.331 2141.97 147.359 2142.97L147.798 2158.59C147.807 2158.91 147.965 2159.2 148.224 2159.39L160.094 2167.7C160.852 2168.24 160.544 2169.42 159.624 2169.52L145.207 2171.02C144.893 2171.06 144.612 2171.24 144.451 2171.51L136.479 2184.95C135.968 2185.81 134.648 2185.47 134.619 2184.47L134.18 2168.85C134.171 2168.53 134.014 2168.24 133.755 2168.05L121.884 2159.74C121.127 2159.2 121.434 2158.02 122.354 2157.92L136.771 2156.42C137.086 2156.38 137.366 2156.2 137.527 2155.93L145.499 2142.49Z" fill="#772AB3"/>
<path d="M1212.18 2302.37C1212.22 2301.41 1213.47 2301.06 1214.01 2301.86L1223.02 2315.4C1223.2 2315.66 1223.49 2315.83 1223.81 2315.84L1240.05 2316.62C1241.01 2316.66 1241.36 2317.91 1240.55 2318.45L1227.02 2327.46C1226.76 2327.64 1226.59 2327.93 1226.58 2328.25L1225.8 2344.49C1225.75 2345.45 1224.5 2345.8 1223.97 2344.99L1214.96 2331.46C1214.78 2331.2 1214.49 2331.03 1214.17 2331.02L1197.93 2330.24C1196.97 2330.19 1196.62 2328.94 1197.42 2328.41L1210.96 2319.4C1211.22 2319.22 1211.38 2318.93 1211.4 2318.61L1212.18 2302.37Z" fill="#772AB3"/>
<path d="M702.05 3258.89C702.352 3257.97 703.649 3257.97 703.95 3258.89L704.822 3261.54C704.922 3261.84 705.158 3262.08 705.46 3262.18L708.112 3263.05C709.029 3263.35 709.029 3264.65 708.112 3264.95L705.46 3265.82C705.158 3265.92 704.922 3266.16 704.822 3266.46L703.95 3269.11C703.649 3270.03 702.352 3270.03 702.05 3269.11L701.178 3266.46C701.079 3266.16 700.842 3265.92 700.541 3265.82L697.889 3264.95C696.972 3264.65 696.972 3263.35 697.889 3263.05L700.541 3262.18C700.842 3262.08 701.079 3261.84 701.178 3261.54L702.05 3258.89Z" fill="#772AB3"/>
<path d="M809.914 2642.8C810.468 2642.01 811.709 2642.39 811.733 2643.35L811.801 2646.14C811.808 2646.46 811.966 2646.76 812.226 2646.94L814.513 2648.54C815.303 2649.09 814.928 2650.34 813.963 2650.36L811.173 2650.43C810.855 2650.44 810.56 2650.59 810.378 2650.85L808.776 2653.14C808.222 2653.93 806.981 2653.55 806.957 2652.59L806.889 2649.8C806.882 2649.48 806.724 2649.19 806.463 2649L804.177 2647.4C803.387 2646.85 803.762 2645.61 804.727 2645.58L807.517 2645.52C807.835 2645.51 808.13 2645.35 808.312 2645.09L809.914 2642.8Z" fill="#772AB3"/>
<path d="M987.05 2003.89C987.352 2002.97 988.649 2002.97 988.95 2003.89L991.802 2012.56C991.902 2012.86 992.138 2013.1 992.44 2013.2L1001.11 2016.05C1002.03 2016.35 1002.03 2017.65 1001.11 2017.95L992.44 2020.8C992.138 2020.9 991.902 2021.14 991.802 2021.44L988.95 2030.11C988.649 2031.03 987.352 2031.03 987.05 2030.11L984.198 2021.44C984.099 2021.14 983.863 2020.9 983.561 2020.8L974.889 2017.95C973.972 2017.65 973.972 2016.35 974.889 2016.05L983.561 2013.2C983.863 2013.1 984.099 2012.86 984.198 2012.56L987.05 2003.89Z" fill="#772AB3"/>
<path d="M1339.3 1830.31C1339.14 1829.36 1340.28 1828.75 1340.98 1829.41L1354.46 1842.27C1354.69 1842.49 1355.01 1842.59 1355.33 1842.53L1373.68 1839.31C1374.63 1839.15 1375.24 1840.29 1374.58 1840.99L1361.72 1854.47C1361.5 1854.7 1361.4 1855.02 1361.46 1855.34L1364.68 1873.69C1364.84 1874.64 1363.7 1875.25 1363 1874.59L1349.51 1861.73C1349.29 1861.51 1348.96 1861.41 1348.65 1861.47L1330.3 1864.69C1329.35 1864.85 1328.73 1863.71 1329.4 1863.01L1342.26 1849.53C1342.48 1849.3 1342.58 1848.98 1342.52 1848.66L1339.3 1830.31Z" fill="#772AB3"/>
<path d="M201.049 3548.89C201.351 3547.97 202.648 3547.97 202.949 3548.89L208.771 3566.59C208.87 3566.89 209.107 3567.13 209.409 3567.23L227.111 3573.05C228.028 3573.35 228.028 3574.65 227.111 3574.95L209.409 3580.77C209.107 3580.87 208.87 3581.11 208.771 3581.41L202.949 3599.11C202.648 3600.03 201.351 3600.03 201.049 3599.11L195.227 3581.41C195.128 3581.11 194.892 3580.87 194.59 3580.77L176.888 3574.95C175.971 3574.65 175.971 3573.35 176.888 3573.05L194.59 3567.23C194.892 3567.13 195.128 3566.89 195.227 3566.59L201.049 3548.89Z" fill="#772AB3"/>
<path d="M233.05 3898.89C233.352 3897.97 234.648 3897.97 234.95 3898.89L240.772 3916.59C240.871 3916.89 241.108 3917.13 241.409 3917.23L259.112 3923.05C260.028 3923.35 260.028 3924.65 259.112 3924.95L241.409 3930.77C241.108 3930.87 240.871 3931.11 240.772 3931.41L234.95 3949.11C234.648 3950.03 233.352 3950.03 233.05 3949.11L227.228 3931.41C227.129 3931.11 226.892 3930.87 226.591 3930.77L208.888 3924.95C207.972 3924.65 207.972 3923.35 208.888 3923.05L226.591 3917.23C226.892 3917.13 227.129 3916.89 227.228 3916.59L233.05 3898.89Z" fill="#772AB3"/>
<path d="M887.05 4074.89C887.352 4073.97 888.648 4073.97 888.95 4074.89L894.772 4092.59C894.871 4092.89 895.108 4093.13 895.409 4093.23L913.112 4099.05C914.028 4099.35 914.028 4100.65 913.112 4100.95L895.409 4106.77C895.108 4106.87 894.871 4107.11 894.772 4107.41L888.95 4125.11C888.648 4126.03 887.352 4126.03 887.05 4125.11L881.228 4107.41C881.129 4107.11 880.892 4106.87 880.591 4106.77L862.888 4100.95C861.972 4100.65 861.972 4099.35 862.888 4099.05L880.591 4093.23C880.892 4093.13 881.129 4092.89 881.228 4092.59L887.05 4074.89Z" fill="#772AB3"/>
<path d="M1300.05 3934.89C1300.35 3933.97 1301.65 3933.97 1301.95 3934.89L1302.82 3937.54C1302.92 3937.84 1303.16 3938.08 1303.46 3938.18L1306.11 3939.05C1307.03 3939.35 1307.03 3940.65 1306.11 3940.95L1303.46 3941.82C1303.16 3941.92 1302.92 3942.16 1302.82 3942.46L1301.95 3945.11C1301.65 3946.03 1300.35 3946.03 1300.05 3945.11L1299.18 3942.46C1299.08 3942.16 1298.84 3941.92 1298.54 3941.82L1295.89 3940.95C1294.97 3940.65 1294.97 3939.35 1295.89 3939.05L1298.54 3938.18C1298.84 3938.08 1299.08 3937.84 1299.18 3937.54L1300.05 3934.89Z" fill="#772AB3"/>
<path d="M551.05 4746.89C551.352 4745.97 552.648 4745.97 552.95 4746.89L558.772 4764.59C558.871 4764.89 559.108 4765.13 559.409 4765.23L577.112 4771.05C578.028 4771.35 578.028 4772.65 577.112 4772.95L559.409 4778.77C559.108 4778.87 558.871 4779.11 558.772 4779.41L552.95 4797.11C552.648 4798.03 551.352 4798.03 551.05 4797.11L545.228 4779.41C545.129 4779.11 544.892 4778.87 544.591 4778.77L526.888 4772.95C525.972 4772.65 525.972 4771.35 526.888 4771.05L544.591 4765.23C544.892 4765.13 545.129 4764.89 545.228 4764.59L551.05 4746.89Z" fill="#772AB3"/>
<path d="M495.05 4782.89C495.352 4781.97 496.648 4781.97 496.95 4782.89L502.772 4800.59C502.871 4800.89 503.108 4801.13 503.409 4801.23L521.112 4807.05C522.028 4807.35 522.028 4808.65 521.112 4808.95L503.409 4814.77C503.108 4814.87 502.871 4815.11 502.772 4815.41L496.95 4833.11C496.648 4834.03 495.352 4834.03 495.05 4833.11L489.228 4815.41C489.129 4815.11 488.892 4814.87 488.591 4814.77L470.888 4808.95C469.972 4808.65 469.972 4807.35 470.888 4807.05L488.591 4801.23C488.892 4801.13 489.129 4800.89 489.228 4800.59L495.05 4782.89Z" fill="#772AB3"/>
<path d="M111.05 4946.89C111.352 4945.97 112.648 4945.97 112.95 4946.89L114.812 4952.55C114.911 4952.85 115.148 4953.09 115.45 4953.19L121.112 4955.05C122.028 4955.35 122.028 4956.65 121.112 4956.95L115.45 4958.81C115.148 4958.91 114.911 4959.15 114.812 4959.45L112.95 4965.11C112.648 4966.03 111.352 4966.03 111.05 4965.11L109.188 4959.45C109.089 4959.15 108.852 4958.91 108.55 4958.81L102.888 4956.95C101.972 4956.65 101.972 4955.35 102.888 4955.05L108.55 4953.19C108.852 4953.09 109.089 4952.85 109.188 4952.55L111.05 4946.89Z" fill="#772AB3"/>
<path d="M1203.05 4982.89C1203.35 4981.97 1204.65 4981.97 1204.95 4982.89L1208.79 4994.57C1208.89 4994.87 1209.13 4995.11 1209.43 4995.21L1221.11 4999.05C1222.03 4999.35 1222.03 5000.65 1221.11 5000.95L1209.43 5004.79C1209.13 5004.89 1208.89 5005.13 1208.79 5005.43L1204.95 5017.11C1204.65 5018.03 1203.35 5018.03 1203.05 5017.11L1199.21 5005.43C1199.11 5005.13 1198.87 5004.89 1198.57 5004.79L1186.89 5000.95C1185.97 5000.65 1185.97 4999.35 1186.89 4999.05L1198.57 4995.21C1198.87 4995.11 1199.11 4994.87 1199.21 4994.57L1203.05 4982.89Z" fill="#772AB3"/>
<path d="M1237.6 3528.33C1237.57 3527.36 1238.79 3526.92 1239.39 3527.68L1241.11 3529.88C1241.3 3530.13 1241.61 3530.27 1241.92 3530.27L1244.72 3530.19C1245.68 3530.16 1246.12 3531.38 1245.36 3531.97L1243.16 3533.69C1242.91 3533.89 1242.77 3534.19 1242.78 3534.51L1242.86 3537.3C1242.88 3538.26 1241.66 3538.7 1241.07 3537.94L1239.35 3535.75C1239.15 3535.49 1238.85 3535.35 1238.53 3535.36L1235.74 3535.44C1234.78 3535.47 1234.34 3534.25 1235.1 3533.65L1237.3 3531.93C1237.55 3531.74 1237.69 3531.43 1237.68 3531.12L1237.6 3528.33Z" fill="#772AB3"/>
<path d="M210.55 850.889C210.851 849.972 212.148 849.972 212.45 850.889L214.188 856.174C214.287 856.476 214.524 856.713 214.825 856.812L220.111 858.55C221.028 858.852 221.028 860.149 220.111 860.45L214.825 862.189C214.524 862.288 214.287 862.524 214.188 862.826L212.45 868.112C212.148 869.029 210.851 869.029 210.55 868.112L208.811 862.826C208.712 862.524 208.475 862.288 208.174 862.189L202.888 860.45C201.971 860.149 201.971 858.852 202.888 858.55L208.174 856.812C208.475 856.713 208.712 856.476 208.811 856.174L210.55 850.889Z" fill="#772AB3"/>
<defs>
<filter id="filter0_f_1_7" x="-164" y="-1036" width="2092" height="2092" filterUnits="userSpaceOnUse" color-interpolation-filters="sRGB">
<feFlood flood-opacity="0" result="BackgroundImageFix"/>
<feBlend mode="normal" in="SourceGraphic" in2="BackgroundImageFix" result="shape"/>
<feGaussianBlur stdDeviation="400" result="effect1_foregroundBlur_1_7"/>
</filter>
<filter id="filter1_f_1_7" x="262" y="870" width="2092" height="2092" filterUnits="userSpaceOnUse" color-interpolation-filters="sRGB">
<feFlood flood-opacity="0" result="BackgroundImageFix"/>
<feBlend mode="normal" in="SourceGraphic" in2="BackgroundImageFix" result="shape"/>
<feGaussianBlur stdDeviation="400" result="effect1_foregroundBlur_1_7"/>
</filter>
<filter id="filter2_f_1_7" x="-867" y="2819" width="2092" height="2092" filterUnits="userSpaceOnUse" color-interpolation-filters="sRGB">
<feFlood flood-opacity="0" result="BackgroundImageFix"/>
<feBlend mode="normal" in="SourceGraphic" in2="BackgroundImageFix" result="shape"/>
<feGaussianBlur stdDeviation="400" result="effect1_foregroundBlur_1_7"/>
</filter>
<filter id="filter3_f_1_7" x="-819" y="2854" width="2092" height="2092" filterUnits="userSpaceOnUse" color-interpolation-filters="sRGB">
<feFlood flood-opacity="0" result="BackgroundImageFix"/>
<feBlend mode="normal" in="SourceGraphic" in2="BackgroundImageFix" result="shape"/>
<feGaussianBlur stdDeviation="400" result="effect1_foregroundBlur_1_7"/>
</filter>
<filter id="filter4_f_1_7" x="328" y="3922" width="1986" height="1986" filterUnits="userSpaceOnUse" color-interpolation-filters="sRGB">
<feFlood flood-opacity="0" result="BackgroundImageFix"/>
<feBlend mode="normal" in="SourceGraphic" in2="BackgroundImageFix" result="shape"/>
<feGaussianBlur stdDeviation="400" result="effect1_foregroundBlur_1_7"/>
</filter>
</defs>
</svg>
