<svg width="32" height="26" viewBox="0 0 32 26" fill="none" xmlns="http://www.w3.org/2000/svg">
    <path
        d="M16.64 15.6406H15.36C14.681 15.6406 14.0299 15.341 13.5498 14.8077C13.0698 14.2744 12.8 13.5511 12.8 12.7969V11.375C12.8 10.6208 13.0698 9.89747 13.5498 9.36416C14.0299 8.83086 14.681 8.53125 15.36 8.53125H20.48V11.375H15.36V12.7969H16.64V15.6406Z"
        fill="white" />
    <path
        d="M17.92 19.9062H12.8V17.0625H17.92V15.6406H15.36V12.7969H17.92C18.599 12.7969 19.2501 13.0965 19.7302 13.6298C20.2103 14.1631 20.48 14.8864 20.48 15.6406V17.0625C20.48 17.8167 20.2103 18.54 19.7302 19.0733C19.2501 19.6066 18.599 19.9062 17.92 19.9062Z"
        fill="white" />
    <path d="M17.92 7.10938H15.36V9.95312H17.92V7.10938Z" fill="white" />
    <path d="M17.92 18.4844H15.36V21.3281H17.92V18.4844Z" fill="white" />
    <path d="M32 25.5938H0V0H32V25.5938ZM2.90909 22.3945H29.0909V3.19922H2.90909V22.3945Z" fill="white" />
</svg>
