<svg width="20" height="18" viewBox="0 0 20 18" fill="none" xmlns="http://www.w3.org/2000/svg">
    <path
        d="M8.49622 1.25098C1.62469 2.58431 1 9.25098 1 9.25098M1 9.25098V13.5029C1 14.1981 1 14.5457 1.05736 14.8348C1.2937 16.026 2.22493 16.9573 3.41618 17.1936C3.70527 17.251 4.05289 17.251 4.74812 17.251V17.251C5.44335 17.251 5.79097 17.251 6.08006 17.1936C7.2713 16.9573 8.20254 16.026 8.43888 14.8348C8.49624 14.5457 8.49624 14.1981 8.49624 13.5029V13.251C8.49624 12.321 8.49624 11.856 8.39402 11.4745C8.11661 10.4392 7.30797 9.6306 6.2727 9.3532C5.8912 9.25098 5.42621 9.25098 4.49624 9.25098H1Z"
        stroke="white" stroke-width="1.5" />
    <path
        d="M19 1.25098C12.1284 2.58431 11.5038 9.25098 11.5038 9.25098M11.5038 9.25098V13.5029C11.5038 14.1981 11.5038 14.5457 11.5611 14.8348C11.7975 16.026 12.7287 16.9573 13.9199 17.1936C14.209 17.251 14.5566 17.251 15.2519 17.251V17.251C15.9471 17.251 16.2947 17.251 16.5838 17.1936C17.7751 16.9573 18.7063 16.026 18.9426 14.8348C19 14.5457 19 14.1981 19 13.5029V13.251C19 12.321 19 11.856 18.8978 11.4745C18.6204 10.4392 17.8117 9.6306 16.7765 9.3532C16.395 9.25098 15.93 9.25098 15 9.25098H11.5038Z"
        stroke="white" stroke-width="1.5" />
</svg>
