<svg width="34" height="34" viewBox="0 0 34 34" fill="none" xmlns="http://www.w3.org/2000/svg">
    <path
        d="M9.12906 34.0015C7.94113 34.0004 6.80224 33.5277 5.96276 32.6872L1.31788 27.9825C0.900165 27.5663 0.568719 27.0716 0.342573 26.527C0.116427 25.9824 0 25.3985 0 24.8087C0 24.219 0.116427 23.6351 0.342573 23.0905C0.568719 22.5459 0.900165 22.0512 1.31788 21.635L7.50115 15.4517C8.35588 14.6407 9.4892 14.1886 10.6675 14.1886C11.8457 14.1886 12.979 14.6407 13.8337 15.4517L18.4786 20.1414C18.8963 20.5577 19.2278 21.0523 19.4539 21.597C19.6801 22.1416 19.7965 22.7255 19.7965 23.3152C19.7965 23.9049 19.6801 24.4888 19.4539 25.0335C19.2278 25.5781 18.8963 26.0727 18.4786 26.489L12.2954 32.6573C11.8822 33.0789 11.3898 33.4147 10.8464 33.6453C10.303 33.876 9.71936 33.9971 9.12906 34.0015ZM10.6226 17.1394C10.426 17.1383 10.2312 17.176 10.0492 17.2503C9.86725 17.3246 9.7018 17.4341 9.56225 17.5725L3.37897 23.7558C3.1008 24.0356 2.94469 24.4142 2.94469 24.8087C2.94469 25.2033 3.1008 25.5819 3.37897 25.8617L8.06871 30.5962C8.20755 30.7362 8.37267 30.8473 8.55467 30.9231C8.73667 30.999 8.9319 31.038 9.12906 31.038C9.32623 31.038 9.52145 30.999 9.70345 30.9231C9.88545 30.8473 10.0507 30.7362 10.1895 30.5962L16.3578 24.413C16.636 24.1331 16.7921 23.7546 16.7921 23.36C16.7921 22.9654 16.636 22.5869 16.3578 22.3071L11.6531 17.5875C11.5136 17.4491 11.3481 17.3395 11.1662 17.2652C10.9842 17.1909 10.7894 17.1532 10.5928 17.1544L10.6226 17.1394Z"
        fill="white" />
    <path
        d="M23.3176 19.8129C22.1297 19.8118 20.9908 19.3391 20.1513 18.4986L15.4318 13.7939C15.0141 13.3777 14.6826 12.883 14.4565 12.3384C14.2303 11.7938 14.1139 11.2099 14.1139 10.6201C14.1139 10.0304 14.2303 9.44652 14.4565 8.90189C14.6826 8.35727 15.0141 7.86264 15.4318 7.44637L21.615 1.26312C22.4698 0.452116 23.6031 0 24.7813 0C25.9596 0 27.0929 0.452116 27.9476 1.26312L32.6821 5.98271C33.0998 6.39897 33.4313 6.8936 33.6574 7.43823C33.8836 7.98285 34 8.56676 34 9.15648C34 9.74619 33.8836 10.3301 33.6574 10.8747C33.4313 11.4194 33.0998 11.914 32.6821 12.3302L26.4989 18.4986C26.0814 18.9165 25.5855 19.2478 25.0395 19.4734C24.4935 19.699 23.9083 19.8143 23.3176 19.8129ZM24.8112 2.95082C24.6146 2.94968 24.4197 2.98736 24.2378 3.06168C24.0558 3.13601 23.8904 3.24552 23.7508 3.38394L17.5675 9.5672C17.2893 9.84703 17.1332 10.2256 17.1332 10.6201C17.1332 11.0147 17.2893 11.3933 17.5675 11.6731L22.2274 16.3927C22.3662 16.5327 22.5314 16.6438 22.7134 16.7196C22.8954 16.7954 23.0906 16.8345 23.2878 16.8345C23.485 16.8345 23.6802 16.7954 23.8622 16.7196C24.0442 16.6438 24.2093 16.5327 24.3482 16.3927L30.5165 10.2094C30.7947 9.92959 30.9509 9.55105 30.9509 9.15648C30.9509 8.76191 30.7947 8.38336 30.5165 8.10353L25.8119 3.38394C25.5374 3.11161 25.168 2.95635 24.7813 2.95082H24.8112Z"
        fill="white" />
    <path d="M21.5335 10.2917L9.58914 22.2361L11.7013 24.3483L23.6457 12.4039L21.5335 10.2917Z" fill="white" />
</svg>
