<svg width="24" height="24" viewBox="0 0 24 24" fill="none" xmlns="http://www.w3.org/2000/svg">
    <path
        d="M20 22H18V20C17.9993 19.8684 18.0245 19.7379 18.0742 19.6161C18.124 19.4943 18.1973 19.3834 18.29 19.29L22 15.59V6C22 5.73478 21.8946 5.48044 21.7071 5.29291C21.5196 5.10537 21.2652 5 21 5C20.7348 5 20.4804 5.10537 20.2929 5.29291C20.1054 5.48044 20 5.73478 20 6V11H18V6C18 5.20435 18.3161 4.4413 18.8787 3.87869C19.4413 3.31608 20.2044 3 21 3C21.7957 3 22.5587 3.31608 23.1213 3.87869C23.6839 4.4413 24 5.20435 24 6V16C23.9995 16.1323 23.9727 16.2632 23.9212 16.3851C23.8697 16.5069 23.7945 16.6174 23.7 16.71L20 20.41V22Z"
        fill="white" />
    <path
        d="M15 22H13V14.09C12.9993 13.9584 13.0245 13.828 13.0742 13.7061C13.124 13.5843 13.1973 13.4735 13.29 13.38L15.79 10.88C16.3623 10.337 17.1211 10.0343 17.91 10.0343C18.6989 10.0343 19.4577 10.337 20.03 10.88C20.5918 11.4425 20.9074 12.205 20.9074 13C20.9074 13.795 20.5918 14.5575 20.03 15.12L18.53 16.62L17.12 15.21L18.62 13.71C18.7137 13.6171 18.7881 13.5065 18.8389 13.3846C18.8897 13.2628 18.9158 13.132 18.9158 13C18.9158 12.868 18.8897 12.7373 18.8389 12.6154C18.7881 12.4936 18.7137 12.383 18.62 12.29C18.527 12.1963 18.4165 12.1219 18.2946 12.0711C18.1727 12.0204 18.042 11.9942 17.91 11.9942C17.778 11.9942 17.6473 12.0204 17.5254 12.0711C17.4036 12.1219 17.293 12.1963 17.2 12.29L15 14.5V22Z"
        fill="white" />
    <path d="M21.99 24H19.99V23H14.99V24H12.99V21H21.99V24Z" fill="white" />
    <path
        d="M5.91002 22H3.91002V20.41L0.280017 16.7C0.0989317 16.5121 -0.00154941 16.2609 1.80672e-05 16V6C1.80672e-05 5.20435 0.316071 4.4413 0.87868 3.87869C1.44129 3.31608 2.20437 3 3.00002 3C3.79567 3 4.55872 3.31608 5.12133 3.87869C5.68393 4.4413 6.00002 5.20435 6.00002 6V11H4.00002V6C4.00002 5.73478 3.89465 5.48044 3.70711 5.29291C3.51957 5.10537 3.26523 5 3.00002 5C2.7348 5 2.48043 5.10537 2.2929 5.29291C2.10536 5.48044 2.00002 5.73478 2.00002 6V15.59L5.62001 19.3C5.8011 19.4879 5.90158 19.7391 5.90001 20L5.91002 22Z"
        fill="white" />
    <path
        d="M11 22H9V14.51L6.72 12.3C6.62687 12.2047 6.51564 12.1291 6.39285 12.0774C6.27007 12.0257 6.13822 11.9991 6.005 11.9991C5.87179 11.9991 5.73991 12.0257 5.61713 12.0774C5.49434 12.1291 5.38314 12.2047 5.29001 12.3C5.19628 12.393 5.12187 12.5036 5.07111 12.6254C5.02034 12.7473 4.9942 12.878 4.9942 13.01C4.9942 13.142 5.02034 13.2727 5.07111 13.3946C5.12187 13.5164 5.19628 13.627 5.29001 13.72L6.79001 15.22L5.38 16.63L3.88 15.13C3.3182 14.5675 3.00262 13.805 3.00262 13.01C3.00262 12.215 3.3182 11.4525 3.88 10.89C4.44995 10.3424 5.20964 10.0366 6 10.0366C6.79036 10.0366 7.55005 10.3424 8.12 10.89L10.69 13.38C10.7875 13.473 10.8652 13.5846 10.9185 13.7083C10.9718 13.8321 10.9995 13.9653 11 14.1V22Z"
        fill="white" />
    <path d="M10.99 24H8.99002V23H3.91003V24H1.91003V21H10.99V24Z" fill="white" />
    <path
        d="M13 5H11C10.4696 5 9.96086 5.21071 9.58578 5.58578C9.21071 5.96086 9 6.46957 9 7V9H15V7C15 6.46957 14.7893 5.96086 14.4142 5.58578C14.0391 5.21071 13.5304 5 13 5Z"
        fill="white" />
    <path
        d="M11.99 4C13.0946 4 13.99 3.10457 13.99 2C13.99 0.89543 13.0946 0 11.99 0C10.8854 0 9.98999 0.89543 9.98999 2C9.98999 3.10457 10.8854 4 11.99 4Z"
        fill="white" />
</svg>
